[img]http://img851.imageshack.us/img851/4785/melank.jpg[/img]
[code]
SIMS presents to you ... Melancholia 2011 R5 XviD-SIMS
Source: LAZi (tx)
IMDB : http://www.imdb.com/title/tt1527186/
plot : Two sisters find their already strained relationship challenged as a mysterious new planet threatens to collide into the Earth.

General
Format                           : AVI
Format/Info                      : Audio Video Interleave
Format profile                   : OpenDML
File size                        : 1.25 GiB
Duration                         : 2h 9mn
Overall bit rate                 : 1 377 Kbps
Writing application              : Lavf51.12.1

Video
ID                               : 0
Format                           : AVC
Format/Info                      : Advanced Video Codec
Format profile                   : Baseline@L1.3
Format settings, CABAC           : No
Format settings, ReFrames        : 1 frame
Format settings, GOP             : M=1, N=12
Codec ID                         : H264
Duration                         : 2h 9mn
Bit rate                         : 299 Kbps
Width                            : 640 pixels
Height                           : 272 pixels
Display aspect ratio             : 2.35:1
Frame rate                       : 25.000 fps
Color space                      : YUV
Chroma subsampling               : 4:2:0
Bit depth                        : 8 bits
Scan type                        : Progressive
Bits/(Pixel*Frame)               : 0.069
Stream size                      : 277 MiB (22%)

Audio
ID                               : 1
Format                           : MPEG Audio
Codec ID                         : 55
Codec ID/Hint                    : MP3
Duration                         : 2h 9mn
Bit rate                         : 128 Kbps
Channel(s)                       : 2 channels
Sampling rate                    : 44.1 KHz
Compression mode                 : Lossy
Stream size                      : 21.6 MiB (2%)
Alignment                        : Aligned on interleaves
Interleave, duration             : 32 ms (0.80 video frame)

Notes: Studio audio
[/code]
Screens:
[img]http://img266.imageshack.us/img266/1144/67382146.png[/img]
[img]http://img513.imageshack.us/img513/1340/46985367.png[/img]
